<svg xmlns="http://www.w3.org/2000/svg" width="166" height="65" fill="none"><path fill="#fff" fill-rule="evenodd" d="M37.08 30c.6 0 1.07.13 1.44.41a4.85 4.85 0 0 1 1.15 1.38 1 1 0 0 1 .07.33c0 .3-.14.44-.44.44-.14 0-.27-.1-.38-.3-.1-.19-.23-.4-.4-.62a3.02 3.02 0 0 0-.57-.6 1.5 1.5 0 0 0-.96-.26c-.57 0-1.14.32-1.73.96-2.16 2.33-5.1 9.1-6.86 13.75 3.58.05 7.22-.68 9.86-2.87.39-.33 1.82 1.23-4.1 3.17-1.56.5-3.73.63-6.05.5-.31.83-.57 1.58-.77 2.2-.64 1.95-1.14 3.58-1.53 4.88-.18.63-.35 1.25-.5 1.88-.14.64-.31 1.28-.53 1.94-.06.23-.2.35-.44.35-.23 0-.35-.12-.35-.35v-.05c.12-.6.32-1.43.63-2.5a121.05 121.05 0 0 1 2.66-8.44 39.1 39.1 0 0 1-5.4-.83l-.06.14-.07.14-.05.07-.04.07a.65.65 0 0 0-.06.2c0 .05 0 .12.04.18.03.05.05.12.05.18v.19c-.02.11-.06.22-.1.33l-.05.15-.03.04c-.03.07-.08.12-.12.18l-.14.14c-.11.1-.2.15-.3.18-.11.03-.23.04-.4.03h-.08l-.29.02c-.02.01-.05.08-.08.1l-.18.28-.03.09-.12.42-.04.12a1.23 1.23 0 0 1-.37.4c-.11.07-.24.13-.37.18l-.34.15c-.12.06-.24.09-.37.12H18l-.6.13a.74.74 0 0 1-.2.03l-.2.02c-.13 0-.26.02-.38.06-.12.03-.23.08-.34.14l-.06.04-.05.03s-.05.07-.05.11c0 .04.01.08.04.1l.03.04s.07.07.08.12l.08.26c.02.09.03.18.03.28 0 .04 0 .09-.02.13l-.05.12c-.12.2-.36.38-.64.5-.26.13-.55.19-.77.15l-.15-.04-.16-.05a1.57 1.57 0 0 1-.59-.43.82.82 0 0 1-.07-.11l-.05-.15v-.05s-.04-.1-.04-.15c0-.02 0-.05-.02-.06a.16.16 0 0 0-.07-.04.28.28 0 0 0-.09-.02c-.03 0-.04 0-.07.03l-.08.05-.18.08-.18.06a.64.64 0 0 1-.36-.02 1.1 1.1 0 0 1-.32-.17.15.15 0 0 1-.06-.08l-.01-.09v-.12l.04-.1.02-.04.08-.17a.95.95 0 0 0 .01-.58c-.04-.2-.12-.41-.16-.62a.98.98 0 0 1-.04-.23c0-.08 0-.17.02-.25l.05-.32.1-.33c.03-.1.07-.22.13-.32l.03-.06.21-.37.08-.12-.14.12a3.04 3.04 0 0 0-.65.81c-.06.1-.13.21-.17.33a4.64 4.64 0 0 0-.44 1.32l-.08.26c-.06.15-.12.71-.15.9l-.08.38-.05.17-.06.29a3.29 3.29 0 0 1-.8 1.59 3.23 3.23 0 0 1-.38.33c-.13.1-.28.17-.41.24l-.13.07-.15.06-.16.04H9c-.08.02-.16.03-.23.06a.1.1 0 0 1-.07 0H8.3a.91.91 0 0 0-.54.2l-.15.1-.14.07-.16.05a.36.36 0 0 1-.18 0l-.42-.06h-.08l-.15.02-.17.03a.53.53 0 0 0-.18.06l-.13.1-.11.1-.17.14a.37.37 0 0 1-.16.07c-.05 0-.1 0-.16-.03a.65.65 0 0 1-.2-.12l-.16-.15-.05-.07s-.03-.06-.03-.1l-.04-.16-.05-.24c0-.03-.02-.06-.03-.08l-.06-.06c-.13-.09-.24-.15-.37-.25a.69.69 0 0 1-.22-.35v-.05l-.1-.2a.91.91 0 0 0-.34-.3.84.84 0 0 1-.35-.37c-.05-.1-.1-.23-.1-.34-.02-.12-.02-.24-.02-.35 0-.1.02-.17.05-.25a.7.7 0 0 1 .13-.21c.04-.07.1-.13.15-.2l.02-.07c0-.05.02-.11.04-.17l.08-.18.02-.04v-.05c0-.1-.03-.2-.07-.27a.46.46 0 0 0-.18-.18l-.25-.17-.15-.14-.06-.08-.03-.1a1.03 1.03 0 0 0-.07-.23.72.72 0 0 1-.04-.13v-.16l-.03-.2a.6.6 0 0 1-.01-.18c0-.06.02-.13.05-.18l.08-.2.06-.22c.02-.08.06-.17.1-.25.04-.08.08-.17.13-.24a4.12 4.12 0 0 1 .85-1c.12-.13.24-.24.38-.35l-.1-.06-.13-.1a.6.6 0 0 1-.14-.21.75.75 0 0 1-.04-.27v-.18c0-.06 0-.1-.02-.16a.42.42 0 0 0-.12-.1l-.07-.03-.13-.04h-.15l-.26-.03c-.1 0-.18-.03-.27-.05a1.14 1.14 0 0 1-.45-.23.92.92 0 0 1-.27-.43.31.31 0 0 0-.08-.14.25.25 0 0 0-.13-.06.4.4 0 0 1-.18-.05l-.16-.08a.83.83 0 0 1-.24-.2.75.75 0 0 1-.15-.3c-.02-.11-.05-.23-.06-.36-.02-.11-.02-.24-.02-.37s.02-.26.06-.39a.89.89 0 0 1 .17-.36s.03-.05.03-.08v-.08a2.69 2.69 0 0 1-.07-.48l-.02-.18v-.18c0-.06.02-.12.04-.18l.09-.23.1-.23a1.97 1.97 0 0 1 .39-.58c.03-.02.27-.28.31-.3a.49.49 0 0 0 .12-.08l.1-.07.4-.2.07-.07s.05-.07.05-.12a.2.2 0 0 0-.04-.13l-.06-.05-.04-.02a.36.36 0 0 1-.18-.17c-.04-.07-.05-.16-.04-.24l.02-.15.03-.16.08-.3.05-.13a.38.38 0 0 1 .07-.1l.05-.04c.13-.11.27-.24.44-.3.06-.03.13-.07.19-.08.04 0 .09-.02.1-.06.05-.08.26-.08.34-.1l.13-.04h-.07l-.02-.02-.07-.05a.38.38 0 0 1-.15-.2.56.56 0 0 1 0-.25.6.6 0 0 1 .56-.42h.02a.5.5 0 0 1-.16-.13c-.05-.05-.08-.11-.1-.18a.53.53 0 0 1-.03-.25.4.4 0 0 1 .13-.2l.07-.05c.1-.08.22-.1.35-.09.13.01.24.08.33.17l.02.03.06.06h.13c.05 0 .1 0 .14.02H5.64l-.31-.25-.08-.05a.28.28 0 0 0-.09-.02l-.6-.07H4.2a.69.69 0 0 0-.24.06c0 .06 0 .12-.04.17-.03.07-.05.12-.1.17a.48.48 0 0 1-.12.12c-.05.03-.1.04-.17.05-.08 0-.17 0-.25-.03a.7.7 0 0 1-.22-.13.55.55 0 0 1-.19-.47c0-.06.02-.12.04-.17l.08-.15a.47.47 0 0 1 .2-.16.5.5 0 0 1 .25-.03s.1.02.13.08c0 .02.03.04.06.05l.04.02c.06.03.12.07.16.14l.13-.03H4a1.53 1.53 0 0 1 .62-.04l-.04-.02-.28-.16c-.04-.04-.1-.06-.15-.08a.5.5 0 0 0-.17-.03H3.5l-.46.03-.4.07-.13.03h-.03l-.1.03v.05c.02.1 0 .18-.04.25a.41.41 0 0 1-.17.17c-.07.03-.14.04-.2.05-.08 0-.14 0-.21-.02a.44.44 0 0 1-.26-.2.49.49 0 0 1-.06-.33c.02-.1.06-.18.12-.25a.75.75 0 0 1 .19-.16.2.2 0 0 1 .1-.03c.04 0 .08.02.1.05.04.04.09.06.14.08.04 0 .07.02.1.04.04.01.06 0 .1-.02a4.58 4.58 0 0 1 1.25-.2l-.23-.15-.32-.17c-.19-.04-.41-.03-.58-.07H2.3c-.02 0-.04 0-.05-.02-.08.02-.23.06-.32.06l-.08.03-.08.03-.06.02-.01.14c-.01.06-.04.12-.07.18a.46.46 0 0 1-.23.2c-.1.02-.2.02-.3 0l-.16-.1a.51.51 0 0 1-.12-.14.41.41 0 0 1-.06-.42c.02-.06.06-.1.1-.16l.13-.12A.27.27 0 0 1 1.1 33a.32.32 0 0 1 .14 0c.07 0 .15.04.2.07.06.03.11.06.15.11l.07-.02h.12c.1-.03.2-.04.3-.04h.04l-.02-.01a.68.68 0 0 1-.19-.06l-.18-.08a1.62 1.62 0 0 0-.42-.14l-.14-.03-.14-.05H.98a.25.25 0 0 1-.11.07.26.26 0 0 1-.12.03l-.07.02a.5.5 0 0 1-.2.04c-.05 0-.12-.03-.18-.05a.3.3 0 0 1-.15-.14.36.36 0 0 1-.05-.2v-.1a.2.2 0 0 1 .05-.1l.05-.1c.01-.07.04-.11.1-.14a.33.33 0 0 1 .13-.05h.11c.1 0 .2.02.29.07.09.05.17.13.22.23l.03.07s.07-.03.11-.03h.24s.04-.05.07-.05a.26.26 0 0 1-.07-.13.31.31 0 0 1 .02-.17l.04-.09.05-.08c.03-.06.09-.1.15-.12a.27.27 0 0 1 .2 0c.08.03.15.07.2.12.08.04.13.11.17.18l.05.1s.01.1 0 .14a.48.48 0 0 1-.06.16.27.27 0 0 1-.14.13h-.02c.15.12.56.23.78.31l-.02-.04-.03-.06v-.03l-.03-.06-.05-.05a.29.29 0 0 1-.11-.16c-.02-.06-.01-.12 0-.17 0-.05.02-.1.04-.12a.28.28 0 0 1 .1-.09.17.17 0 0 1 .12-.02c.04 0 .07.02.1.04h.06l.08.05.07.05c.07.06.1.13.1.21 0 .08-.01.16-.07.23l-.06.05.02.06c.02.07.05.14.06.22l.02.04c.13.09.37.17.52.24l-.03-.2s0-.04-.02-.05l-.05-.04a.32.32 0 0 1-.16-.17.41.41 0 0 1 .08-.4l.06-.1c.01-.02.04-.04.08-.05a.4.4 0 0 1 .14-.03.2.2 0 0 1 .17.08l.07.04c.09.07.13.17.14.26 0 .1-.02.2-.08.28l-.05.06-.08.08c0 .05 0 .08.02.12l.04.2c0 .04 0 .06.02.08a.1.1 0 0 0 .06.05l.33.18.27.18a2.41 2.41 0 0 1-.05-.37c0-.13 0-.26.02-.37 0-.04 0-.03-.04-.06a.38.38 0 0 1-.08-.28c0-.08.03-.18.11-.28a.7.7 0 0 1 .45-.22c.04 0 .08 0 .1.02 0 0 .07.02.09.04.08.06.12.14.16.22.04.08.05.17.05.27 0 .05 0 .1-.03.14l-.07.12a.6.6 0 0 1-.15.11.44.44 0 0 1-.2.05H5.1v.18c0 .07 0 .14.02.21v.03c.02.09.06.31.04.36.01.04.03.05.08.08l.25.17.24.17.21.17v-.16s-.03-.05 0-.09c-.02-.02-.03-.04-.02-.08v-.02a.1.1 0 0 1 0-.08v-.02l-.02-.1-.01-.11-.04-.08-.1-.07-.05-.1a.3.3 0 0 1-.03-.13c0-.03 0-.08.03-.12l.06-.11a.47.47 0 0 1 .1-.09l.15-.08.11-.02c.04 0 .07.02.1.04l.08.08c.08.1.18.22.16.4v.01a.32.32 0 0 1-.1.17s-.1.08-.16.09h-.02v.03s0 .07.02.1l.05.25.1-.1a.55.55 0 0 1 .18-.02c.05 0 .1.02.16.04 0-.03 0-.07.02-.1a.3.3 0 0 1 .1-.15l.05-.1v-.03c.03-.06.04-.12.03-.18l-.03-.18a1.38 1.38 0 0 1-.05-.35c0-.1 0-.22.02-.34a1.98 1.98 0 0 1 .21-.6l.11-.16c.04-.05.1-.09.13-.14a.7.7 0 0 1 .14-.1l.08-.04c.06-.05.13-.1.2-.18l.16-.2.16-.22.18-.2.15-.13.19-.1c.1-.04.22-.06.33-.07h.04a.72.72 0 0 0 .3-.14.63.63 0 0 0 .18-.26l.04-.15.02-.16c0-.07 0-.12.03-.2a.62.62 0 0 1 .08-.18l.15-.22c.05-.08.1-.15.17-.22l.1-.1.11-.07.29-.16c.1-.06.2-.1.32-.1.1-.02.22 0 .34.02.18.05.35.14.49.25.13.1.26.25.36.42l.13.17.15.14.07.04h.18c.04.04.1.06.15.07.07.03.15.04.22.1l.1.06.2.13a1.36 1.36 0 0 1 .59.76l.02.04.08.18.04.18.05-.06.08-.14c.05-.11.1-.24.13-.36l.07-.23.02-.24v-.14c0-.1 0-.22.03-.32a.8.8 0 0 1 .14-.3l.04-.06c.07-.11.14-.2.23-.3.09-.08.19-.16.3-.22a2 2 0 0 1 .4-.16.96.96 0 0 1 .44.01H15.94c.05 0 .1-.04.13-.08a.38.38 0 0 1 .1-.07l.11-.06.17-.08.17-.05a.96.96 0 0 1 .24-.03c.08 0 .16 0 .25.04.08.03.16.04.23.03.07 0 .15-.03.22-.08h.02c.05-.04.1-.08.16-.08a.2.2 0 0 0 .11-.03l.1-.05a.2.2 0 0 1 .06-.04h.03c.1-.08.21-.12.32-.16l.09-.03.21-.06h.03s.1-.03.15 0c.03.02.08.02.11.02h.01c.1 0 .18 0 .26.03a1.05 1.05 0 0 1 .49.28c.06.08.13.16.18.25l.06.09.07.07.1.08s.06.03.1.03h.1c.07 0 .13-.02.2-.04l.13-.02c.09 0 .17.02.24.06.06.05.12.1.16.19l.03.1v.1l-.07.1-.07.08c-.05.05-.1.1-.16.13a1.3 1.3 0 0 0-.2.2l-.18.23-.05.1-.08.22-.05.12a.59.59 0 0 0-.06.19l-.02.2c0 .14 0 .29.02.42.01.15.04.3.06.44.05.33.1.67.1.99 0 .33 0 .65-.07.98-.03.22-.08.43-.13.64a3.54 3.54 0 0 1-.45.92l-.23.3c-.08.1-.17.2-.26.28l-.22.19H19l.2-.04a.88.88 0 0 0 .32-.1c.1-.05.19-.13.26-.2.08-.08.16-.15.25-.2a1.65 1.65 0 0 1 .83-.34c.11-.02.22-.01.33.02.1.03.2.09.3.17l.08.07a.8.8 0 0 1 .19.22c.04.09.07.18.08.28l.05.35c.02.13.07.24.14.33.07.1.15.19.26.26a3.02 3.02 0 0 1 .4.35l.12.15c.12.16.22.33.33.5.09.14.17.28.2.44l.02.27c0 .08 0 .17-.02.25l-.04.2a1.45 1.45 0 0 1-.16.45l-.2.32c-.06.1-.14.18-.22.27l-.24.27c-.08.1-.14.2-.2.3a.4.4 0 0 0-.05.18c0 .06 0 .12.02.19l.11.3.02.06.06.16c0 .06.02.12 0 .19l-.02.15-.03.13-.07.19-.07.2a.63.63 0 0 1-.1.24.67.67 0 0 1-.15.17l-.14.11-.14.1c-.1.06-.14.11-.16.17-.02.06-.01.13.02.2l.09.2.11.18.11.14c.03.04.06.1.07.17l.02.06.02.05.08.22a.7.7 0 0 1 .03.25v.17c1.7.4 3.6.7 5.54.8 1.48-4.06 3.94-10.04 6.19-13.08a8.78 8.78 0 0 1 1.66-1.75 2.78 2.78 0 0 1 1.69-.65l-.11.03Zm106.1 34.04a.42.42 0 0 1-.39-.23 3.03 3.03 0 0 1-.32-1.22l-.02-.52c0-.8.1-1.7.3-2.7.2-.98.45-1.99.75-3.01.3-1.02.63-2.02.97-3.02l.9-2.64.76-2.13c-.58.25-1.29.52-2.14.83-.94.33-1.94.7-3.03 1.07-1.1.4-2.13.8-3.1 1.23-.1.6-.2 1.16-.33 1.68s-.3.94-.5 1.25c-.25.4-.65.79-1.18 1.16-.53.37-1.04.56-1.53.56-.37 0-.64-.12-.8-.34a1.5 1.5 0 0 1-.24-.86c0-.83.38-1.58 1.15-2.24.76-.66 1.69-1.25 2.78-1.77.09-.6.18-1.2.3-1.83l.15-.74a21.8 21.8 0 0 1-3.52 1.81l-1.25.5c-.4.15-.83.27-1.28.4-.46.1-.92.17-1.38.17a3 3 0 0 1-1.9-.52c-.42-.34-.64-.97-.64-1.85 0-.26.04-.52.1-.78.08-.25.15-.5.24-.73-.25.18-.55.36-.9.56l-1.08.6c-.37.2-.74.36-1.1.5-.36.13-.68.2-.97.2a.68.68 0 0 1-.5-.2.63.63 0 0 1-.19-.45c0-.11.01-.23.04-.34-.2.04-.4.08-.6.1a18.56 18.56 0 0 1-2.42.2 14.06 14.06 0 0 1-4.09-.7c-.48-.18-.91-.39-1.28-.64-.1.37-.21.75-.35 1.14-.14.39-.33.74-.55 1.05-.24.31-.48.58-.75.77-.28.2-.59.3-.93.3-.4 0-.67-.14-.82-.42-.15-.29-.22-.6-.22-.95 0-.24.04-.5.13-.81a12.46 12.46 0 0 0-1.5.81c-1.18.66-2.34 1.3-3.52 1.91-1.16.62-2.39 1.13-3.68 1.54-.69.23-1.37.34-2.06.34-.7 0-1.23-.23-1.72-.67-.49-.45-.73-1-.73-1.66 0-.28.02-.56.08-.84a7.13 7.13 0 0 1 .82-2.1c.29-.5.62-.99.99-1.47s.77-.88 1.2-1.2c.44-.34.86-.5 1.26-.5.63 0 .94.33.94.98a6.16 6.16 0 0 1-.5 2.32c-.06.26-.2.4-.43.4-.23 0-.34-.12-.34-.35 0-.4.07-.77.23-1.12.16-.34.23-.72.23-1.12 0-.24-.08-.35-.25-.35-.25 0-.55.16-.88.48-.33.32-.64.69-.94 1.1a13.98 13.98 0 0 0-1.32 2.26c-.18.37-.26.8-.26 1.25 0 .6.18 1.05.52 1.36a2 2 0 0 0 1.38.45c.8 0 1.78-.26 2.95-.76 1.16-.5 2.29-1.06 3.4-1.67l2.97-1.68a6.5 6.5 0 0 1 1.6-.75c.08-.16.18-.3.27-.46.26-.4.56-.73.88-1 .33-.27.66-.4 1.02-.4.11-.21.27-.31.47-.31.26 0 .42.12.5.34.07.23.11.45.11.64.22.32.57.59 1.02.8a8.96 8.96 0 0 0 2.93.77c.5.04.9.07 1.22.07.7 0 1.35-.04 1.97-.1.59-.07 1.22-.22 1.85-.43.24-.2.52-.37.8-.52a7 7 0 0 1 2.6-.67 2.2 2.2 0 0 1 .86.16.54.54 0 0 1 .4-.17c.23 0 .34.12.34.39 0 .4-.11.8-.33 1.18-.21.39-.32.78-.32 1.18 0 .7.16 1.15.48 1.38.31.23.8.34 1.42.34.58 0 1.2-.1 1.88-.3.67-.21 1.35-.46 2.02-.78a21.74 21.74 0 0 0 3.55-2.07l.13-.05c.14-.45.3-.82.5-1.1.21-.32.47-.49.75-.49.17 0 .36.07.55.22.21.15.3.31.3.52 0 .3-.14.47-.42.47a.35.35 0 0 1-.32-.17.6.6 0 0 0-.29-.25c-.25.2-.45.7-.58 1.5l-.41 2.62c1.2-.51 2.39-.96 3.55-1.33 1.16-.37 2.07-.68 2.73-.91.4-.15.78-.31 1.15-.5l1.06-.56 1.16-3.15c.8-2.1 1.6-4.18 2.43-6.25-.49-.05-.96-.1-1.4-.12-.44-.03-.9-.07-1.4-.13l-2.56-.28a22.03 22.03 0 0 0-4.02-.08 7.01 7.01 0 0 0-2.39.68c-.4.19-.81.44-1.27.75a.7.7 0 0 1-.3.1c-.2 0-.3-.12-.3-.35 0-.18.1-.33.3-.48l.52-.34a7.12 7.12 0 0 1 2.43-.99 13 13 0 0 1 2.64-.25c.86 0 1.72.06 2.59.18l2.53.3 2.97.25.95-2.4c.31-.8.66-1.6 1.03-2.38.06-.18.2-.25.43-.25.15 0 .24.04.26.14.03.1.03.2.03.32-.25.58-.54 1.26-.85 2.05-.32.8-.68 1.64-1.08 2.57a146.35 146.35 0 0 0 5.86.22 36.6 36.6 0 0 0 4.09-.28c.83-.1 1.6-.24 2.34-.42.73-.17 1.21-.37 1.44-.6a.9.9 0 0 0 .3-.43c.07-.18.21-.26.44-.26.2 0 .3.1.3.3 0 .55-.39.98-1.18 1.3-.8.3-1.7.55-2.73.73a41.15 41.15 0 0 1-8.14.36l-3.02-.15-2.52 6.42c-.9 2.32-1.75 4.6-2.52 6.82a85.6 85.6 0 0 0-1.9 6.18c-.5 1.9-.76 3.4-.76 4.52 0 .43.07.75.2.96.12.22.19.4.19.54 0 .28-.15.43-.43.43v.06Zm-6.1-11.95c-.86.43-1.57.88-2.13 1.36-.55.48-.84 1-.84 1.57 0 .15.01.27.04.39s.13.18.3.18c.32 0 .67-.15 1.06-.43.39-.29.68-.58.88-.86.14-.24.27-.53.39-.91.12-.37.21-.8.3-1.29Zm-12.83-3.44c.34 0 .84-.18 1.5-.54.66-.36 1.26-.74 1.8-1.14-.51 0-1.09.1-1.74.3-.65.2-1.14.5-1.49.9a.66.66 0 0 0-.21.49h.13v-.01Zm-9.95-1.99a1.67 1.67 0 0 1-.17-.39.6.6 0 0 1-.29.11c-.1.01-.2.05-.28.1-.18.1-.34.25-.5.49a7.04 7.04 0 0 0-.79 1.57c-.09.27-.13.5-.13.66 0 .15.01.3.04.45.03.16.13.24.3.24.24 0 .45-.13.67-.37.21-.24.4-.53.55-.87a8.14 8.14 0 0 0 .6-1.99ZM51.23 33.12c0-.2-.04-.39-.1-.56-.07-.18-.23-.26-.48-.26-.29 0-.63.2-1.02.58-.38.38-.78.88-1.2 1.5a48.39 48.39 0 0 0-2.47 4.15c-.37.69-.7 1.32-.98 1.88l-.64 1.22c-1.24 2.42-2.4 4.85-3.45 7.3a31.32 31.32 0 0 0-2.24 8.03v.38c0 .23.12.34.35.34.3 0 .45-.14.45-.42.06-.23.09-.46.09-.7 0-.25.03-.49.09-.71.26-1.43.62-2.81 1.06-4.17.44-1.36.97-2.7 1.55-4.04a47.56 47.56 0 0 0 5.51-6.87 39.52 39.52 0 0 0 2.45-4.19 8.1 8.1 0 0 0 1.02-3.46h.01Zm-.84.03h.05v.04a6.5 6.5 0 0 1-.7 2.68 25.73 25.73 0 0 1-1.72 3.16c-.7 1.1-1.45 2.19-2.28 3.27a95.54 95.54 0 0 1-2.32 2.91 110.04 110.04 0 0 1 3.71-7.2 44.94 44.94 0 0 1 1.83-3c.57-.86 1.05-1.48 1.44-1.85ZM21.64 45.28l.07-.35v-.29a.83.83 0 0 0-.03-.22l-.03-.08c-.06-.1-.1-.17-.19-.27l-.15-.2-.03-.03-.05-.03-.3-.12-.3-.1a4.88 4.88 0 0 0-.51-.1c-.18-.04-.36-.05-.53-.07l-.5-.02h-.5c-.32 0-.7-.03-1.04 0h-.16s-.03 0-.05-.02c-.02 0-.04-.03-.04-.04v-.03s0-.05.02-.06a.07.07 0 0 1 .04-.02h.06l.05-.01c.04 0 .07 0 .1.02H17.75a.14.14 0 0 1 .07-.02c.17-.03.34-.04.51-.05h.08c.22-.02.45-.03.68-.03.23 0 .46 0 .68.03.14 0 .28.03.41.06l.41.09.26.07.24.1v-.05c-.02-.09-.03-.17-.02-.26a.6.6 0 0 1 .09-.25v-.02h-.1l-.03-.02h-.11l-.06-.02h-.04l-.01-.03v.02h-.08l-.03-.02c-.07.02-.17 0-.24 0H20.33c-.23-.02-.48 0-.71 0h-.3c-.04 0-.1.02-.16 0 0 0-.03.02-.05 0h-.06c-.12.03-.22.04-.33.05h-.14l-.06.02h-.1c-.19 0-.4.1-.58.08l-.07.02c-.05.01-.1.01-.11-.06-.02-.06 0-.1.05-.1h.1c.1-.03.2-.06.3-.07l.3-.04h.04c.06-.01.05 0 .12-.03h.05l.1-.02c.13-.02.25-.04.38-.03h.06s.05 0 .09-.02h.08c.18 0 .35-.02.52-.03h.54s.07 0 .12.02c.04.03.17.01.22.01H20.82l.1.01c.06 0 .06 0 .11.02h.08l.03-.02H21.29l.06-.1.07-.07h.01l.08-.08a.99.99 0 0 0 .41-.57l.07-.26v-.1c0-.05 0-.08-.02-.12l-.09-.36a.74.74 0 0 1-.03-.2v-.25s.01-.05 0-.07h-.25s-.04.02-.08 0h-.02l-.07.02h-.02a.14.14 0 0 1-.06.01h-.1s-.02.02-.03.01c-.1.03-.19.03-.28.04h-.14s-.04-.03-.04-.06v-.02l.01-.05.04-.04.39-.08a.22.22 0 0 1 .14 0h.02l.13-.02.12-.02h.1a.14.14 0 0 1 .06-.02h.04l.1-.03.03-.07.03-.06c.04-.08.09-.16.15-.23l.17-.2.17-.17.14-.2c.07-.1.12-.21.16-.33a.92.92 0 0 0 .05-.37v-.17c0-.13-.04-.26-.09-.38l-.02-.04-.04-.07-.04-.04-.15.16-.17.18c-.06.06-.13.1-.18.16l-.03.02c-.1.07-.2.15-.33.2l-.11.04-.32.1a19.66 19.66 0 0 1-1.3.46 4.5 4.5 0 0 0-.75.24c-.2.08-.42.16-.62.26-.07.04-.14.1-.21.13l-.33.24a6.5 6.5 0 0 0-1.28 1.3l-.13.2a3.06 3.06 0 0 1-.48.7l-.02.02c-.05.05-.1.1-.17.13a.15.15 0 0 0-.06.08c-.04.06-.1.12-.11.2l-.1.34-.08.3-.03.23c.2-.34.38-.7.58-1.03.02-.02.04-.06.1-.04l.06.05v.14a8.92 8.92 0 0 1-.41 1.27c-.07.15-.15.3-.24.43-.09.14-.2.26-.3.38a.37.37 0 0 0-.1.13.86.86 0 0 0-.05.14l-.04.36-.04.37c-.02.15 0 .3.02.46.02.16.05.3.11.46l.13.35.02.01.12.22c.08.18.17.35.29.5l.03.08.06.11c.02.05.04.09.07.12h.01l.11.2.09.19v.02l.05.12c.02.04.05.08.06.13.07.15.07.3.08.46v.16l.22-.05.15-.02h.14l.47-.06.46-.08a.8.8 0 0 0 .2-.06l.32-.1.08-.04c.05-.05.1-.08.17-.12l.19-.08.05-.02c.1-.05.19-.12.28-.18l.24-.22.05-.06.03-.06.07-.22.1-.2.04-.04v-.04c.01-.07.03-.13.06-.19l.08-.16.02-.03-.18-.18a3.92 3.92 0 0 0-.86-.52l-.64-.3c-.02 0-.04-.03-.06-.04h-.02l-.03-.04-.06-.03-.04-.02-.03-.02-.04-.01-.13-.06a.89.89 0 0 0-.13-.07l-.04-.02-.05-.03-.06-.03-.07-.07-.08-.07-.04-.02-.1-.1-.19-.15a3.23 3.23 0 0 1-.17-.18 1.76 1.76 0 0 1-.25-.29s-.02-.08 0-.1h.06c.12.06.13.06.26.24.12.1.28.26.4.35l.04.05.1.05.05.03.07.07v.03l.09.03c.02 0 .03.02.04.03l.14.05.05.03h.03l.04.03s.03 0 .04.02l.08.05.05.03.08.04.52.2.5.22.25.13.24.16.22.16c.07.06.14.11.2.2l.01.01h.03l.17-.04-.05-.04c-.14-.1-.27-.21-.42-.3-.15-.09-.3-.18-.45-.24l-.54-.28-.35-.18-.34-.16-.1-.05a3.33 3.33 0 0 1-1.09-.74l-.37-.38-.04-.06v-.02l-.05-.04c-.02 0-.03-.03-.04-.05l-.02-.04-.12-.17-.02-.05v-.06c0-.02.02-.04.03-.05l.06-.02.04.03.02.02c.05.05.1.11.14.18.02.07.02.06.08.12.2.2.4.4.62.58a3.1 3.1 0 0 0 .74.48l.3.13.27.11.5.25.8.4.16.1.18.12c.16.11.3.2.44.34l.08.05h.08l.12-.08.15-.12.14-.13.07-.13c.02-.04.03-.1.03-.15v-.12c0-.04 0-.08-.02-.12a.85.85 0 0 1-.03-.4c.03-.13.1-.25.16-.36l.04-.06.09-.15v-.03h-.03ZM93.47 33.1a8.1 8.1 0 0 1-1.02 3.45A39.52 39.52 0 0 1 90 40.75a47.54 47.54 0 0 1-5.52 6.87 40.92 40.92 0 0 0-1.55 4.04 33 33 0 0 0-1.06 4.17c-.06.22-.09.46-.09.7 0 .25-.03.48-.09.7 0 .29-.14.44-.44.44-.23 0-.35-.12-.35-.35v-.38a31.88 31.88 0 0 1 2.24-8.03l.13-.3a23.66 23.66 0 0 1-3.44 1.7l-1.3.48c-.4.15-.85.28-1.32.38-.48.12-.94.18-1.42.18-.86 0-1.52-.18-1.95-.5-.44-.35-.67-.96-.67-1.84 0-.26.04-.51.1-.77.09-.26.16-.5.25-.73a24.22 24.22 0 0 1-2.05 1.16c-.38.2-.76.36-1.13.48-.37.13-.7.2-1 .2a.7.7 0 0 1-.5-.2.58.58 0 0 1-.2-.45c0-.4.17-.76.5-1.09.31-.33.71-.6 1.17-.8.46-.22.94-.39 1.45-.5.5-.11.91-.17 1.24-.17a2.32 2.32 0 0 1 .88.16.56.56 0 0 1 .4-.17c.24 0 .36.12.36.38 0 .4-.11.79-.34 1.17-.22.38-.33.77-.33 1.17 0 .68.17 1.14.49 1.37.32.22.81.34 1.46.34.6 0 1.24-.1 1.94-.3.69-.2 1.4-.46 2.08-.77.7-.32 1.37-.66 2-1.03.64-.37 1.2-.71 1.67-1.02a.78.78 0 0 1 .21-.08 115.46 115.46 0 0 1 3.42-7l.97-1.89c.37-.69.77-1.4 1.2-2.13.43-.73.85-1.4 1.27-2.01.41-.62.81-1.12 1.2-1.5.4-.38.72-.57 1.03-.57.23 0 .39.08.46.25.08.18.11.35.11.56l-.02.04Zm-.84.03c-.38.38-.87.99-1.44 1.86-.58.87-1.18 1.86-1.83 2.99a106.4 106.4 0 0 0-3.7 7.2c.7-.86 1.48-1.83 2.3-2.9.84-1.1 1.6-2.18 2.3-3.28.68-1.1 1.26-2.15 1.72-3.16.46-1.02.7-1.9.7-2.68v-.04h-.06l.01.01Zm-23 15.43c.35 0 .87-.18 1.55-.54.68-.35 1.3-.73 1.86-1.13-.53 0-1.13.1-1.8.3-.65.2-1.17.5-1.52.9a.66.66 0 0 0-.23.47h.14ZM57.57 53.6c0-.08.1-.35.27-.8a89.17 89.17 0 0 1 1.51-3.64l.4-.87c-.27.07-.56.13-.89.17a20.08 20.08 0 0 1-2.48.19 14.27 14.27 0 0 1-4.22-.7c-.5-.16-.94-.38-1.32-.64-.09.37-.2.75-.35 1.13-.15.38-.34.73-.58 1.05-.23.3-.5.56-.78.77-.28.2-.6.3-.95.3-.41 0-.7-.15-.84-.43-.15-.28-.23-.6-.23-.94 0-.31.08-.67.23-1.1a5.05 5.05 0 0 1 1.53-2.18c.34-.27.68-.4 1.04-.4.12-.2.29-.31.5-.31.25 0 .43.12.5.34.08.23.1.44.1.65.24.3.6.57 1.05.79a9.52 9.52 0 0 0 3.02.76c.51.04.93.07 1.27.07.7 0 1.38-.04 2.02-.11.58-.07 1.19-.2 1.82-.4l.09-.2a38.12 38.12 0 0 1 1.27-2.62c.09-.12.17-.22.26-.3.09-.1.2-.13.35-.13.2 0 .31.1.31.3 0 .15-.02.24-.08.3-.54.77-.99 1.61-1.36 2.52l-.21.52-.04.1-.88 2.08c.32-.5.8-1.15 1.42-1.99.63-.84 1.32-1.66 2.1-2.5.76-.82 1.54-1.54 2.32-2.15.79-.62 1.49-.92 2.11-.92.2 0 .48.07.82.2.34.12.51.3.51.53 0 .31-.15.47-.45.47a.44.44 0 0 1-.4-.21c-.09-.15-.3-.22-.62-.22-.57 0-1.24.35-2.04 1.05-.8.69-1.59 1.5-2.36 2.46-.77.93-1.47 1.87-2.1 2.8-.64.92-1.1 1.62-1.4 2.07l-.71 1.13c-.24.38-.5.75-.75 1.1a.43.43 0 0 1-.4.25c-.24 0-.36-.12-.36-.35l-.02.01Zm-7.41-7a6.27 6.27 0 0 1-.6 1.96 3.6 3.6 0 0 1-.57.88c-.23.24-.45.36-.69.36-.17 0-.28-.08-.3-.24-.04-.15-.06-.3-.06-.45 0-.17.05-.39.14-.66a7.04 7.04 0 0 1 .82-1.56c.16-.23.33-.38.5-.47.1-.06.2-.1.3-.1.1-.02.2-.06.3-.11.05.17.1.3.17.38h-.01ZM7.03 53.74c.23.03.27.04.49-.1.75-.36 1.25-.12 1.87-.4a.73.73 0 0 0 .12-.07l.22-.16.22-.16c.1-.08.21-.17.3-.28a3.99 3.99 0 0 0 .66-1.37l.09-.4a.89.89 0 0 0 .03-.22V49.9l.03-.23c.05-.22.13-.46.18-.7l.15-.4a7.13 7.13 0 0 1 .41-.82l.24-.44c.1-.15.2-.28.32-.4l.02-.02-.27.14a4.27 4.27 0 0 0-.68.47l-.41.34-.09.07-.08.08c-.06.09-.13.16-.21.24l-.2.2-.17.22c-.41.53-.56.93-.8 1.56l-.19.48a1.98 1.98 0 0 1-.55.84l-.3.24-.21.13-.23.1a.78.78 0 0 1-.2.04H7.7l-.24.07-.26.08c-.06.02-.1.06-.1.1-.12.27.3.4.4.54.05.06.08.13.1.2.01.14 0 .27-.07.39-.08.17-.32.3-.51.3v.01Zm-3.1-1.43.1.05h.02l.16.12c.05.04.1.09.13.15l.05.08.02.1c0 .07.02.14.05.2.03.08.06.15.1.21l.08.11a.2.2 0 0 0 .1.06l.04.02h.02c.1.06.2.13.27.21.06.1.11.19.13.32l.05.24.03.1.05.09c.02.02.04.04.06.04l.06.02.04-.03.04-.04a.63.63 0 0 1 .3-.29l.06-.04.2-.14c.07-.05.13-.11.19-.18l.13-.13a.6.6 0 0 1 .3-.15c.1-.03.22-.03.34 0h.11a.25.25 0 0 0 .11-.07c.03-.03.05-.06.05-.08 0-.02-.03-.05-.07-.08-.09.02-.13-.02-.18-.07h-.02c-.14-.15-.2-.32-.28-.47a.3.3 0 0 1-.03-.13l.03-.12.06-.13a.48.48 0 0 1 .32-.3l.1-.03.1-.04.28-.07.24-.06.23-.09.08-.05.07-.04a1.18 1.18 0 0 0 .45-.4l.21-.3c.07-.1.13-.21.18-.32.03-.07.07-.18.08-.25 0-.12.01-.24.05-.36.03-.11.08-.21.13-.32l.16-.32.16-.32.12-.19c.3-.38.56-.67.89-1.02.02-.06.05-.1.09-.14l-.36.22-.12.1c-.14.08-.27.18-.4.28l-.36.3c-.35.33-.65.7-.95 1.07l-.37.48-.02.04-.02.02-.02.03-.03.03v.03l-.04.02c-.02.03 0 .03-.05.05l-.12.22-.14.2-.04.11-.13.2c-.03.03-.07.04-.1 0h-.01s-.02-.06-.01-.08c0-.02 0-.03.02-.05.03-.1.06-.18.12-.24.04-.1.1-.18.14-.26l.07-.1.04-.05.02-.05s0-.03.04-.06v-.03l.03-.03v-.03l.04-.03v-.03l.04-.03c.04-.09.1-.16.15-.23l.31-.41.31-.4a7.02 7.02 0 0 1 .76-.75l.5-.37.23-.14.2-.12c.13-.1.29-.16.44-.24l.07-.03.1-.04a.31.31 0 0 1 .14-.01c.08-.05.2-.17.27-.22l-.38.14-.43.2a3.75 3.75 0 0 0-1.17.74 9.1 9.1 0 0 0-1.14 1.2c-.2.22-.38.47-.56.7l-.25.32v.03l-.04.03c0 .02 0 .03-.02.05l-.02.02c-.07.13-.12.2-.2.31l-.06.13-.08.12-.03.05s-.03.1-.1.11c-.03 0-.06 0-.07-.04-.03-.07 0-.12.04-.17l.08-.16a.9.9 0 0 1 .07-.12l.08-.15.1-.14c0-.03 0-.04.04-.06l.02-.03.05-.06s0-.03.03-.05l.08-.14c.14-.17.27-.38.4-.56.14-.2.3-.38.45-.56a12.48 12.48 0 0 1 .9-.95l.46-.37.19-.13c.05-.04.12-.07.2-.1l.22-.12.11-.06a.9.9 0 0 1 .2-.08l.06-.02c.21-.1.44-.2.66-.28l.1-.04.21-.09.22-.1.34-.14.24-.1.2-.09.2-.07.24-.1a.88.88 0 0 0 .16-.08h.02c.13-.09.27-.14.4-.18h.04l.12-.06a12.51 12.51 0 0 1 .81-.72L14.7 45v-.03s-.05 0-.06.02c-.09.1-.2.16-.3.23l-.36.23-.33.19c-.11.06-.23.1-.35.14-.13.03-.26.08-.39.13l-.22.08-.1.04-.37.1-.46.11c-.15.03-.3.07-.43.12l-.71.22a4.6 4.6 0 0 0-.4.13l-.19.07-.38.15-.05.02c-.27.11-.55.23-.8.4l-.25.15-.41.3a6.39 6.39 0 0 0-.88.8l-.45.5-.35.45c-.3.4-.57.81-.86 1.22l-.13.2s-.01.05-.03.07l-.04.04v.03l-.04.02-.04.07a.58.58 0 0 1-.12.2l-.02.05-.05.05h-.09L5 51.47v-.06l.07-.16.07-.15.06-.15.03-.04a2 2 0 0 1 .19-.35l.03-.06a12.62 12.62 0 0 1 1.44-2.07c.17-.17.33-.35.5-.5l.37-.32a6.46 6.46 0 0 1 .86-.61l.13-.1.22-.12.06-.03.17-.07.1-.04.37-.16.43-.18.77-.26.15-.06.1-.04.23-.08.96-.23.14-.04a7.93 7.93 0 0 1-.93.1l-.25.03a5.94 5.94 0 0 0-1.4.27l-.28.1-.26.1-.39.17-.38.18a6.29 6.29 0 0 0-.7.42l-.26.2-.26.2-.3.28-.28.3-.4.45-.38.47a5.87 5.87 0 0 0-.63 1.06c-.1.22-.46.99-.5 1.04H4.8l-.05-.01c-.02-.01-.03-.03-.03-.06v-.13l.02-.11.07-.2.08-.18a10.1 10.1 0 0 1 .58-1.12l.26-.4.3-.37.33-.39.36-.38a6.81 6.81 0 0 1 1.14-.95l.1-.07a18.3 18.3 0 0 1 1-.52l.41-.18.5-.18.35-.11.36-.07.5-.08.52-.05.64-.1.13-.02h-.18l-.13-.01H12l-.07-.02c-.22 0-.42-.02-.63-.05H11.05c-.07.03-.16.04-.24.05l-.18.03-.14.05-.21.07a.83.83 0 0 1-.23.02c-.18.01-.36.03-.53.07l-.54.11-.27.09-.27.09-.23.04-.13.03-.12.05a.2.2 0 0 1-.1.03l-.17.07-.13.06-.27.1-.26.12c-.04.02-.41.2-.41.22-.03.07-.09.09-.14.12h-.02a3.85 3.85 0 0 0-.63.47l-.22.2c-.1.09-.2.17-.28.27l-.07.07-.37.52c-.12.17-.21.36-.3.55l-.12.32-.1.32c-.06.15-.1.3-.14.45l-.05.16-.06.18-.08.17-.03.05v.07l-.04.17c-.08.23-.17.57-.27.79-.03.09-.07.17-.09.26-.02.08-.03.17-.02.25 0 .07.03.15.07.22.03.05.05.07.09.1l.1.1.11.1-.03-.1Zm9.13-5.14-.06.1-.03.09-.04.14-.1.25-.13.64-.01.15a2.96 2.96 0 0 1 .08.56V49.57l.03.07c.03.07.06.15.07.23v.22a.3.3 0 0 1-.05.17l-.07.12-.03.07.05.06c.05.06.12.08.2.09.06 0 .13 0 .2-.03l.08-.04.07-.05.05-.04c.1-.08.2-.1.3-.1.1 0 .2.02.3.06a.3.3 0 0 1 .13.1c.03.04.05.09.06.14l.05.16c.02.05.04.11.07.15.06.09.13.17.2.24.06.07.15.13.25.16l.23.07c.08.02.15.02.23.02.08 0 .16-.04.24-.06l.07-.02.09-.09.13-.18c.04-.06.1-.13.12-.2l.02-.05v-.24a.46.46 0 0 0-.09-.22.73.73 0 0 1-.07-.11c-.02-.04-.02-.1-.03-.13l-.01-.54c0-.1-.02-.21-.04-.32l-.1-.32a1.62 1.62 0 0 0-.36-.62 2.36 2.36 0 0 1-.19-.25c-.06-.09-.12-.18-.15-.27l-.05-.12c-.08-.19-.17-.38-.19-.59v-.05a7.88 7.88 0 0 1-.05-.83c0-.1.01-.2.03-.28.02-.1.05-.18.1-.27l.14-.31.02-.04s-.1.06-.13.1l-.13.2-.1.22a6.4 6.4 0 0 0-.26 1.45c-.02.24-.02.48-.02.71l.01.71c0 .08-.02.16.03.23.03.07.03.13.03.21 0 .08.02.12.03.2v.06l-.05.05-.07-.01a.05.05 0 0 1-.03-.05v-.05a.29.29 0 0 1-.04-.16 1.51 1.51 0 0 1-.04-.2v-.04l-.02-.06s-.01-.05 0-.07v-.02a.18.18 0 0 1-.02-.08l-.02-.13-.03-.34-.02-.6c0-.2 0-.41.02-.6a4.84 4.84 0 0 1 .18-1.04l.02-.07-.5.49-.21.21-.17.25-.15.24-.05.07-.02-.05Zm3 2.4.02-.03a.7.7 0 0 0 .1-.2c.03-.08.04-.16.03-.24a.81.81 0 0 0-.03-.21.81.81 0 0 0-.06-.2c-.07-.27-.1-.28-.23-.5l-.04-.1-.08-.13-.07-.1-.05-.08h-.02c-.05-.04-.07-.08-.1-.13l-.08-.15-.16-.3-.14-.36a2.34 2.34 0 0 1-.17-.85c0-.13 0-.25.03-.38l-.1.28a1.5 1.5 0 0 0-.04.2v.22l.05.72.02.12.03.12a2.55 2.55 0 0 0 .35.73l.17.23a3.63 3.63 0 0 1 .36.66l.02.04c.04.1.09.21.12.33l.04.19.02.1v.01Zm6.31-12.11-.15-.15-.06-.06a.3.3 0 0 0-.07-.04c-.02.01-.03.04-.04.06l-.04.08-.05.07c-.09.13-.18.25-.3.34l-.15.12-.33.2-.17.12a1.16 1.16 0 0 1-.37.19c-.04 0-.07.03-.1.05l-.13.06c-.09.05-.18.1-.28.12l-.28.14-.22.1a2.2 2.2 0 0 1-.23.1l-.18.05-.24.08-.18.08-.19.09-.52.27a2.53 2.53 0 0 0-.63.42 5.98 5.98 0 0 0-.48.5 1.2 1.2 0 0 0-.17.32.56.56 0 0 1-.04.13l-.07.13-.07.13-.12.27-.07.13-.05.07-.03.08-.04.14.12-.2.14-.27a3.24 3.24 0 0 1 .78-.97l.3-.28.06-.05c.18-.14.36-.28.54-.4l.24-.15c.07-.05.16-.09.25-.13l.44-.17a7.1 7.1 0 0 1 .97-.28l.29-.1c.1-.02.18-.06.28-.1l.14-.06c.1-.05.2-.1.3-.12.03 0 .05-.02.07-.03l.07-.04.07-.04c.13-.03.25-.12.36-.21l.05-.04c.12-.09.22-.18.32-.3.1-.1.17-.22.26-.34l.03-.08v-.03h-.03Zm-1.15-1.96s-.1-.08-.15-.1a.46.46 0 0 0-.16-.04h-.01c-.11-.01-.22-.02-.3 0l-.27.09-.24.12-.24.18-.13.1a1.86 1.86 0 0 1-.73.35l-.53.16-.25.06c-.05.06-.11.1-.17.12 0 0-.1.05-.13.09a.2.2 0 0 1-.06.04h-.02a3.04 3.04 0 0 0-.63.54c-.14.15-.25.34-.36.51l-.15.27c-.04.07-.08.15-.1.24v.02c-.07.13-.1.24-.15.38l-.03.15-.05.39v.2a8.37 8.37 0 0 1 .1.64c.02.14.02.3.02.45v.24l.07-.17a1.3 1.3 0 0 1 .24-.39l.09-.1c.04-.08.1-.15.17-.2.06-.07.13-.14.2-.18l.15-.12.2-.16.16-.1.27-.13c.13-.07.27-.13.42-.18l.3-.12c.13-.05.25-.1.37-.12l.34-.12c.3-.12.6-.25.89-.4.08-.04.17-.09.26-.1l.06-.03c.22-.13.43-.29.65-.43l.13-.08c.18-.14.3-.33.42-.52l.03-.04-.04-.04-.15-.16-.04-.03c-.1-.11-.18-.23-.23-.36a1.13 1.13 0 0 1-.07-.4v-.27c0-.05 0-.1-.03-.15-.02-.04-.06-.08-.1-.12l-.02.02Zm-1.72-.97a2.88 2.88 0 0 0 .27-.82 7.02 7.02 0 0 0 .08-1.3c0-.15-.02-.3-.03-.44a3.46 3.46 0 0 0-.06-.43c-.02-.13-.03-.27-.03-.4l-.01-.42v-.16c0-.06.02-.11.04-.16l.1-.3a1.72 1.72 0 0 0-.25.48l-.23.65c-.07.23-.15.46-.26.67 0 0 0 .04-.02.06 0 0-.03.04-.06.05H19a.05.05 0 0 1-.05-.03l-.02-.05v-.04l.06-.41c.02-.14.06-.27.1-.4l.02-.12.07-.25.02-.04c.06-.16.12-.34.21-.5.12-.19.25-.37.4-.55.14-.18.3-.33.48-.47l.13-.09h-.26a.8.8 0 0 1-.45-.16.65.65 0 0 1-.13-.14l-.13-.2a1 1 0 0 0-.21-.23.57.57 0 0 0-.29-.12h-.05c-.23-.04-.25-.04-.48.05l-.2.1-.2.12-.11.08-.09.05-.31.27a10.78 10.78 0 0 0-1.13 1.74l-.03.07-.05.06-.02.06c-.02.05-.07.25-.1.3l-.03.01-.04.01c-.03 0-.04 0-.05-.03-.02-.02-.02-.03-.02-.05v-.06l.02-.1.04-.19.02-.04c.03-.16.1-.3.15-.43l.03-.07.3-.62c.11-.2.24-.4.36-.58l.17-.22h-.04c-.05 0-.1 0-.15-.02a.64.64 0 0 0-.3 0c-.1 0-.2.03-.3.07h-.03l-.06.04a.07.07 0 0 0-.04.02l-.03.05-.03.06a52.94 52.94 0 0 0-1.54 3.69c-.03.03-.06.05-.1 0a.21.21 0 0 1-.04-.05v-.05l.04-.15c.03-.1.06-.22.11-.33.02-.12.07-.22.12-.33l.02-.06c0-.09.04-.17.08-.23l.03-.1a30.96 30.96 0 0 1 .77-1.86l.24-.48-.03.01a.36.36 0 0 1-.17.05h-.15l-.2.43-.16.42-.04.12a.83.83 0 0 1-.09.21l-.1.35a7.9 7.9 0 0 1-.26.81l-.14.43-.07.18-.03.08-.03.02h-.06c-.09-.05-.02-.2 0-.26l.1-.34v-.05s.03-.1.06-.13c.01-.1.04-.2.07-.28.05-.16.09-.35.15-.5l.13-.34c0-.07.02-.12.04-.18l.03-.08c.06-.2.14-.39.22-.57l.1-.27.05-.11a.65.65 0 0 0-.27.01H15l-.14.07a1.2 1.2 0 0 0-.14.1l-.19.2a.95.95 0 0 0-.14.23.62.62 0 0 0-.08.22c-.02.08-.02.16-.02.24 0 .14 0 .26-.02.4-.02.13-.06.25-.12.38l-.06.17a1.24 1.24 0 0 1-.42.66l-.03.02c-.11.1-.24.2-.4.2a.2.2 0 0 0-.11.04L13 32l-.2.1-.16.15-.19.17-.1.12-.1.14-.15.39c-.04.13-.08.27-.1.42l-.04.34-.04.34v.31c0 .1.02.2.04.31v.1c.04.2.07.4.13.6l.2.61.02.06.11.3.04.1.03.07.07.13.08.12.24.37.11.17-.09-.26-.17-.59a5.06 5.06 0 0 1-.26-1.29 7.5 7.5 0 0 1 .03-1.6c0-.1.02-.2.04-.3l.07-.27.07-.14.03-.08.03-.04a.06.06 0 0 1 .07 0h.01c.05.05.04.09.03.13V33s0 .03-.02.04l-.02.02a7.2 7.2 0 0 0-.04.64c0 .22 0 .44.02.66l.05.88a7.05 7.05 0 0 0 .25 1.25l.1.33.08.35a7.06 7.06 0 0 1 .2 1.26l.08 1.06c0 .07 0 .14.03.2 0 .07.03.14.04.22l.14.44.08.25.08.15c.07.14.14.3.23.42l.14.16.15.15c.06.06.14.1.22.16l-.05-.07-.3-.43-.26-.46-.1-.17-.19-.42c-.06-.14-.1-.29-.14-.44v-.11l-.02-.09v-.1a.05.05 0 0 1 .05-.03h.03s.03 0 .04.02l.05.09c.02.05.04.1.03.16v.03l.05.12.14.3c.06.14.14.27.22.4l.08.12a4.2 4.2 0 0 1-.34-1.34v-.34l.03-.04.05-.02h.03l.03.02.03.03.03.14v.17l.12.46c.05.15.1.3.17.46l.17.4a13.96 13.96 0 0 0 .54.95l-.19-.48a11 11 0 0 1-.45-1.31l-.15-.6c-.1-.36-.16-.73-.2-1.1a42.2 42.2 0 0 1-.13-1.1l-.06-.76-.02-.75v-.67s0-.06.03-.1v-.25s0-.02.02-.03V34.12s0-.03.02-.04v-.18l.03-.18c0-.07.01-.13.03-.2.02-.1.04-.3.08-.37l.03-.03h.08l.04.04v.06l-.05.36c0 .07-.01.13-.03.2v.03l-.03.3c0 .01 0 .02-.02.03V34.83c0 .41.02.83.05 1.24v.07a21.81 21.81 0 0 0 .45 3.05l.2.73c.12.4.26.79.4 1.19l.07.19-.04-.19-.11-.44a16.82 16.82 0 0 1-.41-1.51 9.5 9.5 0 0 1-.19-1.8v-.46l.03-.46c.02-.22.06-.45.1-.67v-.02l.15-.66.2-.66c.06-.16.13-.33.18-.5l.2-.5.23-.55.25-.54.25-.5a8 8 0 0 1 .28-.5l.02-.02s.04-.07.08-.1c.02-.06.05-.1.08-.15a.62.62 0 0 1 .1-.12l.02-.03a.93.93 0 0 1 .14-.2.07.07 0 0 1 .05-.02h.05l.03.06v.05l-.06.13-.07.1c-.14.28-.27.48-.43.8l-.41.93c-.23.57-.42 1.08-.61 1.65-.06.2-.13.38-.18.59l-.07.28a8.35 8.35 0 0 0-.26 1.7v.58a9.05 9.05 0 0 0 .25 2.04c.06.33.15.65.24.97l.04.14a4.75 4.75 0 0 1 .14.89l.03-.15v-.32c0-.1-.01-.19-.03-.27l-.07-.28a10.64 10.64 0 0 1-.31-2.16 4.16 4.16 0 0 1 .23-1.28c.08-.19.18-.37.3-.54l.23-.3.25-.3a3.44 3.44 0 0 1 .7-.6l.38-.28c.13-.1.25-.2.36-.33l.21-.25.17-.21c.04-.06.1-.12.12-.19a.9.9 0 0 0 .1-.22c.02-.1.05-.17.08-.25l.1-.23c.04-.06.04-.13.07-.19 0-.03.02-.06.03-.08 0-.06.02-.1.04-.15.01-.04.01-.04.04-.07l.05-.03s.06.02.08.05V33.13a.2.2 0 0 1-.03.11l-.03.06-.03.04v.04c0 .02 0 .03-.02.05v.11c-.04.12-.07.24-.12.35l-.13.33c-.05.12-.14.22-.22.32l-.06.08c-.13.16-.27.33-.43.48-.15.14-.3.29-.47.42l-.34.24a2.51 2.51 0 0 0-.58.7l-.05.1-.06.07a1.83 1.83 0 0 0-.28.47l-.1.25c-.04.09-.08.18-.1.27-.03.1-.06.2-.07.3a3.6 3.6 0 0 0-.04.94c0 .21.03.4.06.61l.14.76.02.08.04.05c.06.05.07.1.09.16v.02c.04.12.05.24.06.35V41.36c.04-.12.05-.25.06-.38l.02-.12c.02-.13.02-.26 0-.38 0-.13-.03-.26-.05-.39a2.97 2.97 0 0 1-.1-.62l-.01-.42v-.02s0-.06.02-.1l.07-.24c.02-.09.03-.19.07-.27.06-.14.1-.29.13-.43l.03-.12.1-.34c.06-.18.11-.35.18-.52.07-.17.17-.31.26-.46l.02-.03c.1-.15.22-.3.34-.43l.2-.23c.18-.24.4-.44.6-.65l.14-.14.1-.11c.11-.15.2-.3.3-.46.1-.16.18-.32.24-.49l.16-.43.1-.45c0-.1.03-.2.05-.29l.03-.12.02-.03.05-.04c.08-.02.09.03.1.06 0 .06.02.1.03.15v.15c-.02.14-.05.3-.1.43a4.06 4.06 0 0 1-.26.84l-.18.39c-.1.17-.22.33-.33.49l-.05.05-.06.05c-.13.11-.24.23-.35.35l-.16.17-.09.12c-.04.08-.1.14-.15.2l-.17.2-.22.27-.15.22a2.77 2.77 0 0 1 .33-.25l.05-.06c.07-.11.15-.21.25-.3.08-.09.2-.16.3-.23l.24-.15.2-.1c.07-.05.12-.1.2-.13l.17-.16c.14-.14.26-.28.38-.43.12-.15.22-.31.31-.49l.04.04Zm-6.41-3.86-.09-.13c.04.1.05.3-.04.66-.03.12-.05.26-.06.38v.1l.22-.07.18-.07c.02 0 .03-.02.03-.03l.01-.03v-.19a.68.68 0 0 0-.07-.19l-.04-.12-.13-.3h-.01Zm-5.34 4.74h.02l.02-.03a.22.22 0 0 0 .03-.1.28.28 0 0 0-.04-.12c-.03-.06-.05-.1-.07-.1-.02 0-.05.03-.09.07l-.05.04-.04.08.01.06.1.08c.03.02.07.02.09.02h.02Zm4.7-5.16-.11-.13-.08-.06-.09-.02c-.12 0-.22-.04-.33-.08-.1-.05-.19-.12-.27-.18-.1-.08-.17-.25-.24-.35a.48.48 0 0 0-.12-.13c-.03-.04-.1-.07-.14-.1a.74.74 0 0 0-.24-.08c-.07 0-.15 0-.24.02h-.02l.03.29v.25c.02.22.02.45 0 .67l-.01.06v.24l-.03.15c0 .06 0 .1-.02.16 0 .02 0 .05-.02.07l-.04.03h-.07c-.05-.1-.02-.2 0-.29v-.03l.01-.26v-.11c.03-.16 0-.47-.02-.64 0-.16-.02-.3-.03-.45v-.02l-.1.08-.1.1c-.13.14-.28.3-.37.47l-.15.38a1.18 1.18 0 0 1-.32.44l-.17.12a.7.7 0 0 1-.19.09c-.07.02-.14.04-.22.04a.79.79 0 0 0-.26.05.78.78 0 0 0-.24.1l-.04.04-.03.05-.28.57a1.35 1.35 0 0 1-.38.45c-.06.04-.11.08-.18.11a.47.47 0 0 1-.2.08h-.02l-.05.06a.54.54 0 0 0-.1.14l-.06.28c-.01.1 0 .2.02.3l.07.29a.76.76 0 0 1-.02.41l-.05.14.1-.03.14.01c.07.02.12.05.15.1l.08.15c.04.08.05.18.04.27a.36.36 0 0 1-.13.22l-.1.08.02.27v.08A.68.68 0 0 1 7.3 35l.07-.1c.05-.07.12-.1.2-.13.07-.01.16 0 .23.05l.1.08s.1.09.11.15a.4.4 0 0 1 .04.18c0 .07 0 .14-.03.2a.29.29 0 0 1-.14.14l-.08.02-.03.07-.02.23v.16l.02.05c0 .05.02.11 0 .15v.03l.02.03.24.27v-.03l.01-.13v-.04l-.03-.02a.12.12 0 0 1-.08-.04l-.07-.06a.37.37 0 0 1-.1-.2c0-.07.02-.13.07-.2.06-.08.13-.13.21-.18l.05-.03c.06-.03.13 0 .19 0h.02c.04.02.07.06.08.1l.07.14s.04.1.04.14c0 .05 0 .1-.02.15a.62.62 0 0 1-.08.14.27.27 0 0 1-.14.08h-.02l-.02.05v.08l.05.15v.07s.04.05.04.08c0 .02 0 .04.02.06 0 .02.02.04.04.06.22.23.41.46.62.7.13.14.25.3.38.43l.24.26.26.24.38.35.36.37.09.1-.2-.4-.03-.03s-.06-.07-.06-.11l-.08-.15v-.08l.04-.03.06.01c.02.02.05.03.06.06.02.03.04.05.05.09l.02.07.06.07-.02-.04s0-.06.03-.07h.05l.1.07.07.11v.06l.19.26.16.29.26.51-.1-.21a1.5 1.5 0 0 1-.08-.19l-.07-.15a5.56 5.56 0 0 0-.4-.61l-.34-.48-.45-.67c-.08-.14-.18-.28-.23-.45l-.12-.3-.1-.24-.08-.23c-.1-.27-.2-.54-.27-.83-.05-.22-.1-.45-.12-.68a5.38 5.38 0 0 1-.07-.7L9 34.13c-.02-.18-.02-.35-.02-.53v-.27L9 33.2c.04-.21.07-.44.09-.66l.03-.27c0-.05.03-.1.1-.08.08.02.08.07.08.11v.03c.01.3.03.6 0 .9-.02.09-.02.19 0 .3l.02.3.02.16c.06.43.12.87.2 1.3l.04.2.1.46.05.2.25.84.05.13c.03.1.06.18.11.27l.18.31.2.3.35.48.36.46.22.32c.06.12.12.24.16.36l.13.28c.07.15.13.3.22.44a1.39 1.39 0 0 0 .3.36l.38.28.36.25-.16-.18-.16-.23-.14-.25c-.04-.09-.08-.17-.1-.26l-.03-.06-.14-.34-.1-.25-.09-.2-.07-.15a1.92 1.92 0 0 0-.13-.24c-.05-.08-.1-.16-.16-.22a4.33 4.33 0 0 1-.45-.72l-.05-.09-.05-.07-.1-.14-.05-.15-.07-.17a1.04 1.04 0 0 1-.07-.19l-.11-.33-.11-.3c-.07-.2-.13-.42-.18-.64-.05-.2-.09-.43-.12-.64l-.05-.31-.02-.32v-.27a3.55 3.55 0 0 1-.01-.64l.03-.32c.03-.3.05-.61.1-.91l.02-.08c.04-.2.08-.41.15-.6l.03-.12.02-.12a2.01 2.01 0 0 1 .12-.46c.06-.2.1-.4.13-.6.02-.2.02-.4 0-.62v-.17l.01-.06.06-.03h.06l.04.04a.1.1 0 0 1 .03.06l.02.07.04.26.02.25c0 .15 0 .3-.02.44-.02.15-.04.3-.1.43l-.03.15-.08.51-.07.34-.07.25c-.03.14-.08.3-.1.45l-.03.16c-.04.23-.07.44-.09.67-.02.22-.02.44 0 .66v.14a8.13 8.13 0 0 0 .63 2.62l.1.23.11.21.1.2c.12.2.23.4.37.61l.08.11.08.1c.06.08.12.15.16.23l.13.25.06.13a12.05 12.05 0 0 1 .32.76l.05.12v-.08s0-.06.03-.07h.02l.06.01-.12-.26-.12-.21c-.09-.15-.13-.3-.18-.45l-.02-.13c0-.03.02-.04.04-.06h.04l.04.01.06.09c.12.24.25.48.41.7.15.22.31.43.48.65l.06.07-.07-.16a2.6 2.6 0 0 1-.2-.55l-.04-.17c-.05-.25-.1-.48-.11-.74 0-.13-.03-.26-.06-.38l-.12-.38a5.18 5.18 0 0 0-.42-.84 5 5 0 0 1-.35-.68l-.18-.41c-.06-.15-.12-.3-.16-.45-.05-.15-.09-.3-.12-.46l-.03-.2-.03-.67v-.34c0-.12.02-.22.04-.34v-.1l.01-.1a2.6 2.6 0 0 1 .1-.78l.21-.44c.1-.13.2-.26.34-.36l.1-.1.05-.04.03-.04v-.05c0-.13 0-.24.02-.36l.07-.35.04-.18a.49.49 0 0 0 0-.17.34.34 0 0 0-.05-.16l-.04-.08a1.31 1.31 0 0 0-.15-.25v.08Zm-5.18 5.1.02.05.05.13c.03.06.06.14.07.22v.03a.21.21 0 0 1-.04.05l.1.13v-.16l-.01-.26-.07-.06s-.08-.1-.1-.15l-.02.01Zm-.26-.74s.06-.06.1-.04l.04.04a.29.29 0 0 0 .04-.1c0-.06 0-.1-.02-.14l-.03-.05-.03-.03-.04.03-.11.08-.04.05s-.02.04-.01.06c0 .02.01.03.03.05l.06.05Zm-.29.22-.08-.07-.02.05-.07.12a.14.14 0 0 0-.01.1c0 .05.03.09.06.13l.06.08.04.1.07.08.15.13-.05-.23-.02-.04a.85.85 0 0 1-.02-.15v-.15c0-.09-.04-.05-.06-.13h-.02l-.03-.02Zm-.23-.4-.02-.03h-.12c-.03.01-.02 0-.04.03v.06l.06.09.02.02.07.06c.03-.01.03-.07.04-.11V34.44Zm1.55 1.63v.06l.03.03.07.05h.07c.02 0 .03-.02.04-.05.02-.03.02-.07.02-.1v-.06l-.04-.06-.15.07-.04.05v.01Zm-.92-.12c-.42-.41-.91-.8-1.36-1.18-.18-.13-.35-.28-.54-.4l-.55-.38-.52-.32-.2-.12a1.96 1.96 0 0 0-.21-.1H3.7l-.07-.05-.08-.03-.6-.3H2.9s-.03 0-.04.03c0 0-.01.05 0 .07 0 .02.02.03.03.04l.03.02s.1.06.15.07l.1.06.2.1.13.07.03.01s.08.06.13.07l.04.02.78.5c.17.1.32.2.46.34.1.12.49.31.63.44.16.13.32.26.45.41l.1.1.13.08.18.11.18.15.03.03.29.3.04.04c.22.22.42.45.61.68.14.16.27.33.41.47.07.07.12.16.18.24l.1.14.21.27.23.25.3.35.18.19c.06.06.13.1.2.15l.17.15c.06.06.11.1.16.17l.4.43.25.25.39.34.08.1c.04.07.1.1.14.12l.13.06.11.08.1.08.17.18c.16.15.34.29.5.45l.18.14.19.14.1.08.54.39.56.36c.08.06.17.1.26.15l.95.52h.05l.03-.02c.14-.09.19-.35.11-.42a4.66 4.66 0 0 0-.61-.34c-.26-.12-.48-.24-.7-.39l-.67-.44-.06-.04-.49-.33-.4-.3-.68-.54a6.55 6.55 0 0 1-.49-.42l-.12-.12c-.16-.13-.3-.28-.44-.43l-.3-.29-.24-.22a7.53 7.53 0 0 1-.4-.4l-.38-.41-.48-.54-.49-.52-.52-.58-.03-.03a4.87 4.87 0 0 0-.38-.4l.03.07ZM2.89 32.4h.05s.02 0 .03-.02v-.08l-.02-.03c0-.02-.02-.03-.03-.04l-.06-.02h-.03c0 .02-.02.04-.05.04h-.02v.05l.01.02.1.07.02.01Zm.4 2.04h-.03l-.03.02c-.06.03-.1.1-.13.18a.35.35 0 0 0 .02.24l.02.03.14.09c.05.02.1.04.16.04h.04c.02 0 .03-.02.05-.04.05-.05.07-.1.08-.16 0-.06 0-.11-.02-.18a.3.3 0 0 0-.12-.14.33.33 0 0 0-.16-.07h-.02Zm4.1 2.54v.07l.03.07c.03.05.06.08.1.1h.11l-.22-.25h-.02v.01Zm4.84 5.8-.03-.02s-.1-.07-.13-.12l-.03-.03-.35-.11-.36-.1-.46-.09a5.61 5.61 0 0 0-1.16-.08c-.23 0-.47.01-.7.03-.57.04-1.13.12-1.69.19l-.38.05H6.9s-.05 0-.1.03h-.06l-.44.07-.23.03-.15.03-.16.02-.06.02h-.05l-.05-.04v-.08l.03-.03c.04-.02.09-.02.13-.02.1-.03.2-.06.3-.06l.24-.06.2-.04.3-.05c.08-.03.2-.04.29-.06.4-.06.8-.12 1.2-.16.42-.05.82-.08 1.23-.1h.64a7.24 7.24 0 0 1 1.28.18l.25.07c-.21-.1-.34-.1-.54-.17l-.24-.06-.54-.11c-.35-.06-.7-.1-1.04-.18l-.27-.02a2.66 2.66 0 0 1-.28-.05H8.7c-.1 0-.17-.02-.26-.03-.24-.04-.54-.03-.78-.07l-.04-.01a.08.08 0 0 1-.04-.07c0-.03.01-.05.03-.06l.06-.02c.17.02.34.02.52.03.08 0 .16 0 .25.03h.15l.14.03h.07c.2.02.4.03.6.07h.06l.63.09.52.08-1-.25c-.07 0-.14-.02-.22-.04l-.1-.02-.53-.1a5.12 5.12 0 0 0-.51-.07c-.08 0-.17 0-.25-.03h-.08l-.04-.03a.07.07 0 0 1-.02-.05c0-.02 0-.04.02-.05 0-.01.03-.03.05-.03h.22c.05 0 .1 0 .15.02l.26.03.87.15c.06 0 .1.03.16.04l.07.01.63.14c.21.05.42.1.62.17l.09.02.08.03h.07l-.5-.41-.25-.24c-.03-.03-.1-.05-.14-.07l-.15-.05c-.08-.05-.18-.05-.3-.13a1.94 1.94 0 0 1-.32-.13l-.18-.08-.36-.16a6.74 6.74 0 0 0-.8-.33h-.03l-.08-.04a2.58 2.58 0 0 0-.37-.18l-.2-.09a2.12 2.12 0 0 0-.4-.14l-.23-.06-.43-.13-.2-.05c-.2-.05-.42-.09-.63-.12l-.62-.06-.28-.01h-.46l-.63.1c-.21.03-.42.08-.62.14l-.08.03a.38.38 0 0 1-.24.04l-.18.14v.02l-.15.15-.08.08.22-.08.1-.04c.1-.04.21-.07.32-.09l.32-.05a7.29 7.29 0 0 1 1.33-.12h.26l.06.02h.01l.03-.02h.01l.05-.01c.12 0 .23 0 .35.03.12 0 .23.03.34.06l.18.02c.06 0 .1.02.16.04h.09c.03 0 .06.02.08.05v.03s0 .05-.02.06l-.04.02h-.1l-.23-.03-.18-.03-.5-.05H4.6c-.08-.02-.6.05-.7.06a13.4 13.4 0 0 0-1.15.2l-.31.09c-.1.03-.2.07-.28.12l-.04.02s-.06.03-.08.06c0 .02-.02.03-.04.03-.04.01-.05.05-.07.09l-.1.23-.04.2v.49l.24.08.23.06a5.9 5.9 0 0 0 .82.07l1.55.04h.31l.04-.02.27-.01c.09 0 .18 0 .26.02h.14c.2.02.18 0 .37 0 .06 0 .12 0 .17.04.02.02.02 0 .03.04 0 .03 0 .05-.03.07l-.04.02-.18.02h-.02l-.11-.01-.22.01h-.65c-.08.02-.07.02-.17.01l-.27.02H3.1l-.47-.03c-.16-.02-.33-.04-.48-.08l-.24-.07-.08-.03v.06l.03.02h.04l.4.1.4.08.45.08h.04s.04 0 .06.02h.29c.13 0 .25 0 .37.03.05 0 .1-.01.14 0 .22.02.24.02.5 0 .06 0 .12-.02.18.02.03 0 .04.05.03.08-.06.08-.12.08-.2.08h-.06a.45.45 0 0 1-.25 0H3.67l-.24-.02H3.3l-.06-.01-.1-.01c-.08 0-.14 0-.21-.02h-.08l-.5-.1a3.16 3.16 0 0 1-.5-.13h-.02c-.04.07-.08.1-.12.18l-.07.13a.73.73 0 0 0-.04.15 2.7 2.7 0 0 0 .09.92c0 .04.04.08.06.1l.1.1.17.08c.06.02.1.04.18.05l.11.02c.03 0 .05.02.08.01h.02l.03-.01c.14.03.27.08.41.13l.17.06.27.03.5.05.72-.04c.25 0 .5-.03.76-.08l.75-.17.52-.16c.18-.05.35-.11.5-.17l1.11-.38.38-.12.4-.1.58-.1a4.86 4.86 0 0 1 1.84 0l.35.08h.04s.04-.04.06-.04h.06s.09.04.13.08v.02l.32.11-.05-.03-.03.06Zm-2.59-2.46c-.11-.1-.26-.19-.4-.27L9.16 40c-.23-.14-.44-.28-.68-.4l-.7-.34-.58-.24c-.2-.08-.4-.15-.6-.2l-.65-.2-.65-.17-.54-.1a4.93 4.93 0 0 0-.54-.05h-.1s-.03 0-.04-.02h-.06l-.1-.03c-.04-.01-.05-.04-.05-.08 0-.03 0-.05.02-.06l.05-.02h.07c.06-.02.12-.03.18 0l.03.02.36-.02.35.02c.22.02.44.05.65.1.22.03.43.08.66.13l.46.1c.15.04.3.1.44.13l.37.1c.2.07.38.16.56.23l.09.04.6.29.5.28-.2-.23c-.11-.11-.24-.2-.35-.3h-.02l-.48-.36-.49-.33c-.16-.1-.31-.2-.46-.32l-.3-.2c-.08-.07-.17-.13-.25-.18l-.21-.13-.14-.09a1.65 1.65 0 0 0-.27-.12l-.3-.06h-.01c-.25-.05-.49-.1-.72-.12l-.36-.04c-.11 0-.23 0-.34.02l-.1.02-.35.07-.23.07a1.1 1.1 0 0 0-.2.12l-.07.06c.2-.02.37-.02.54-.02.18 0 .36.02.54.04l.6.09.58.12c.14.03.26.08.4.12l.15.05.04.02h.04l.22.07.28.12c.02 0 .03.03.03.04v.05l-.03.04-.06.02-.25-.07-.17-.06h-.06a10.33 10.33 0 0 0-1.4-.3c-.18-.02-.38-.05-.58-.06a5.5 5.5 0 0 0-.56-.03h-.24l-.23.03-.04.01s0 .02-.02.03c0 .02-.02.03-.04.04-.03.03-.04.08-.06.12-.03.1-.07.23-.08.34 0 .04 0 .08.02.1 0 .04.03.06.06.07l.11.07c.03.02.06.05.08.1.04.07.06.15.06.23 0 .08-.02.15-.06.22l-.1.14.28-.07c.13-.03.27-.05.4-.06l.67-.04h.18l.63.06c.2.02.42.05.62.1l.17.03.46.1.21.07.22.05a2.39 2.39 0 0 1 .55.2l.19.08.33.16.1.03c.15.06.31.1.47.18l.07.03c.1.04.21.08.32.14.16.08.32.14.49.2.08.05.18.09.27.11l.16.05-.29-.26h-.02l-.02.03ZM2.8 44.2l.03.02a2.8 2.8 0 0 0 .73.16c.3 0 .59.02.88-.02a9.05 9.05 0 0 0 1.47-.28l.58-.18a25.96 25.96 0 0 1 1.52-.42c.24-.05.48-.1.72-.12h.07a.5.5 0 0 1 .17-.02l.04-.02.05-.01.69-.06a8.17 8.17 0 0 1 .82.03H10.75c.16 0 .33-.02.5 0h.14a.26.26 0 0 1 .12-.02h.1l.29.05h.15a3.8 3.8 0 0 0 .16.04h.05c.06.01.1.02.15 0H12.56s.08.02.1 0h.09l.24.03c-.37-.14-.76-.3-1.12-.47l-.4-.11a5.3 5.3 0 0 0-.76-.13c-.19-.02-.38-.02-.56-.02-.18 0-.37.02-.56.06l-.48.09a4.94 4.94 0 0 0-1.09.28 85.5 85.5 0 0 1-2.32.77l-.18.04c-.23.05-.46.1-.7.12h-.16l-.65.05h-.06c-.08 0-.18 0-.28-.02-.16.02-.31 0-.46-.03l-.13-.02a.4.4 0 0 1-.17-.05l-.1-.02-.2-.07.04.08s.04.08.03.14c.02.06.05.09.1.11l.02.03Zm11.05-.2h-.02a4.1 4.1 0 0 0-.47-.1c-.35-.08-.78-.13-1.11-.21l-.48-.1h-.06l-.42-.04c-.18-.02-.37-.05-.55-.04h-.11c-.04 0-.07-.02-.1-.03l-.05-.02H9.7c-.26.01-.53.04-.78.07H8.9l-.12.02H8.7a9.64 9.64 0 0 0-1.04.23l-.72.2-.18.06c-.42.13-.85.26-1.27.37-.21.05-.42.09-.64.12-.21.03-.43.05-.64.06h-.07s.07.05.1.1c.04.04.1.11.13.17l.06.14.02.17v.12l.03.11.02.05.02.04.2.2c.24-.15.4-.27.65-.4l.4-.2c.09-.04.18-.08.27-.1l.27-.1a4.07 4.07 0 0 1 .76-.15h.07c.16-.02.32-.04.46-.04.16 0 .32-.05.47-.1.27-.07.54-.17.8-.26l.3-.07.18-.04.18-.05.39-.1.4-.06c.14-.02.28-.05.43-.06h.75c.13 0 .26.03.4.05l.87.14h.18c.06 0 .12 0 .18-.02l.15-.03.17-.02.27-.05.11-.04.02.02Zm-.78.8.08-.01.15-.05.23-.06a.5.5 0 0 0 .16-.07l.12-.04h.02s.08-.03.09-.1c0-.01 0-.03-.02-.04l-.01-.04c-.01-.02-.03-.02-.05-.02h-.14c-.1.02-.2.04-.3.03h-.12l-.5-.05-.77-.14h-.06a1.86 1.86 0 0 0-.66-.06h-.49a6.67 6.67 0 0 0-1.22.23l-.16.05-.18.03c-.08 0-.15.02-.23.04l-.23.07h-.03l-.06.06c-.03 0-.05.04-.04.07v.02s.04.05.07.05l.16-.02c.16-.03.31-.05.47-.06h.48a5.9 5.9 0 0 1 .83.07l.33.04h.64c.11 0 .2 0 .32.04a.8.8 0 0 0 .26 0l.75-.02h.08l.03-.01Zm-8.69 1.63-.06.06c-.25.3-.5.58-.73.89l-.09.13-.2.37c-.03.07-.07.15-.12.22-.05.1-.08.2-.1.31a.63.63 0 0 0 .02.37l.03.12.03.12c.01.08.05.16.09.24.04.08.1.15.15.23l.05.04a22.48 22.48 0 0 0 .29.15c.05.04.09.09.13.15l.07-.3.13-.54c.06-.18.1-.35.18-.52.06-.18.14-.34.25-.5l.17-.23.1-.14a3.49 3.49 0 0 1 .83-.83l.05-.04c.07-.07.14-.13.22-.18a7.55 7.55 0 0 1 .52-.3l.23-.12.1-.07.14-.1.16-.07c.08-.03.14-.05.21-.1l.09-.03c.07-.01.13-.05.2-.08l.26-.14.08-.03h.08l.1-.04.83-.22a6.85 6.85 0 0 1 1.24-.2l.2-.06h-.18l-.31.01h-.48a10.46 10.46 0 0 0-1.08.05l-.98.1a6.87 6.87 0 0 0-.86.18l-.39.15-.22.1c-.26.1-.5.23-.74.36l-.19.1a1.74 1.74 0 0 0-.5.38v.01ZM6 33.6l.06-.08c0-.04 0-.07-.02-.11 0-.02-.05-.06-.06-.08-.03-.04-.06-.07-.08-.07-.02 0-.05.02-.08.05a.43.43 0 0 0-.08.1v.11c.03.03.07.06.12.07.04.02.08.02.12 0H6l.01.01Zm-1.1-.8s.1.04.15.04c.05 0 .1-.04.14-.08l.03-.04v-.16a.28.28 0 0 0-.08-.14l-.03-.02H5.1l-.16.09a.26.26 0 0 0-.06.05c-.04.06-.05.1-.04.14 0 0 .03.07.07.1h.02l-.01.02Zm-1.2-.17.08.03c.02 0 .05 0 .07-.02l.02-.02c.02-.06.03-.11.01-.16a.22.22 0 0 0-.1-.12.56.56 0 0 0-.07.07c-.02.03-.04.06-.04.11v.07c0 .02.02.03.03.04Zm-2.42.61-.09-.06c-.03 0-.06 0-.09.02a.26.26 0 0 0-.08.07l-.05.09-.02.09c0 .02 0 .04.02.07a.3.3 0 0 0 .11.14c.05.03.1.04.14.04h.03l.03-.03a.34.34 0 0 0-.01-.42Zm.49-1.1s.03-.03.03-.05v-.05l-.05-.07a.2.2 0 0 0-.06-.04h-.03l-.03.1c0 .02-.02.06 0 .07a.1.1 0 0 0 .07.03h.07Zm-1.34.14s-.08.02-.1.05c-.04.04-.07.08-.07.13l.05.02.25-.06v-.04s0-.05-.03-.07l-.08-.03H.42h.01Zm1.37 1.75s-.1.1-.11.14a.16.16 0 0 0-.04.1c0 .05 0 .08.03.12l.03.05.05.03.06.02h.13c.03-.02.06-.04.07-.07.02-.03.02-.06.02-.08 0-.03 0-.06-.02-.1a.25.25 0 0 0-.09-.12c-.04-.04-.09-.06-.13-.08Zm3.02 1.07-.05-.02s-.03 0-.05.04l-.14.12-.02.05v.07c0 .02 0 .04.03.06.04.05.07.09.11.1.04.03.08.03.11.03s.07-.02.09-.05c0 0 .05-.06.06-.1v-.12a.7.7 0 0 0-.08-.14l-.05-.04Zm.74.78h-.02l-.02.02-.02.05v.04l-.04.26v.04l.04.04.06.04.08.02h.08s.04-.02.05-.05l.03-.15c0-.05-.02-.1-.04-.14a.35.35 0 0 0-.08-.11l-.1-.06h-.02Zm-1.07.29-.07-.07-.06-.03-.06.04-.05.09-.03.1v.04l.03.04.1.04c.04 0 .07 0 .1-.02l.05-.02.04-.07v-.1l-.03-.04h-.02Zm2.13.1H6.48c-.06.03-.1.05-.16.1a.24.24 0 0 0-.07.16c0 .06 0 .12.04.19.02.07.07.1.12.13.05.03.11.04.17.04h.08a.29.29 0 0 0 .11-.1c.03-.04.05-.1.05-.16 0-.03 0-.07-.02-.1 0-.03-.02-.05-.04-.08l-.06-.11a.18.18 0 0 0-.1-.07h.02ZM9.26 39a4 4 0 0 1 .38.43c.1.1.19.22.3.31l.12.13c.12.13.24.25.34.38.11.14.22.27.32.42l.04.06c.15.16.3.3.47.45.17.14.33.3.5.43l.18.14-.07-.1-.24-.38c-.06-.1-.13-.18-.2-.27l-.09-.1-.1-.11-.1-.08c-.1-.05-.18-.1-.27-.17l-.22-.21-.04-.04c-.28-.22-.52-.5-.75-.77l-.2-.22-.1-.1-.1-.1-.15-.1h-.02Zm-4.73-3.24.03.03v.07c0 .02-.02.02-.03.03l-.02.02h.02c.08.05.15.1.2.16h.01c.08-.02.22 0 .25 0l.1-.02s.07 0 .07-.05c0-.13.03-.22.1-.29.06-.06.14-.1.23-.12 0 0 .1-.03.14 0 .06 0 .1.04.14.12l.13.1.07.04h.05l.26-.06-.23-.22-.1-.06-.1-.04h-.02s-.1-.02-.13-.05h-.04l-.06-.02H5.48l-.26-.02c0 .05 0 .1-.03.14a.55.55 0 0 1-.08.12.38.38 0 0 1-.26.15c-.1 0-.2 0-.3-.05l-.02.02ZM0 .43h9.16c1.25 0 2.43.12 3.52.37 1.1.24 2.04.77 2.83 1.57.79.81 1.18 1.97 1.18 3.5 0 1-.21 1.84-.63 2.55a5.05 5.05 0 0 1-1.68 1.72c-.7.43-1.47.74-2.3.95-.83.2-1.66.3-2.48.3v.22c1 .1 1.87.43 2.58.94.7.52 1.32 1.17 1.83 1.95.5.77 1.12 1.84 1.83 3.2l.42.84c.2.4.41.78.63 1.12.2.34.42.61.64.83.21.21.44.32.66.32.23 0 .42-.13.57-.4.15-.26.22-.62.22-1.1h.82c0 .85-.21 1.53-.63 2.07-.43.53-1.04.8-1.8.8a3.6 3.6 0 0 1-2.24-.72 6.7 6.7 0 0 1-1.63-1.77c-.44-.7-1-1.66-1.67-2.91a44.77 44.77 0 0 0-1.77-2.99 6.26 6.26 0 0 0-1.57-1.63 3.6 3.6 0 0 0-2.14-.64c-.28 0-.5 0-.64.03v8c0 .92.39 1.37 1.16 1.37h1.74v.85H0v-.85h1.74c.78 0 1.16-.46 1.16-1.37V2.65c0-.91-.38-1.37-1.16-1.37H0V.43Zm5.7 1.45v8.78c.62.08 1.3.12 2.01.12 3.9 0 5.84-1.64 5.84-4.93 0-1.47-.47-2.6-1.43-3.39a5.54 5.54 0 0 0-3.66-1.2c-.88 0-1.8.21-2.77.61l.01.01Zm18.4 9.14c0-1.43.23-2.82.71-4.15.48-1.33 1.18-2.5 2.1-3.54A9.78 9.78 0 0 1 30.28.89C31.6.29 33.1 0 34.75 0s3.14.3 4.47.88c1.32.6 2.46 1.4 3.37 2.44a10.71 10.71 0 0 1 2.1 3.53 12.7 12.7 0 0 1 0 8.4 10.76 10.76 0 0 1-2.1 3.58 9.93 9.93 0 0 1-3.37 2.45c-1.33.6-2.82.9-4.46.9a10.02 10.02 0 0 1-9.38-5.61 12.23 12.23 0 0 1-1.28-5.53v-.02Zm3.32 0c0 1.56.23 3.13.7 4.7a9.1 9.1 0 0 0 2.37 3.98 5.8 5.8 0 0 0 4.26 1.62c1.73 0 3.16-.54 4.26-1.62a9.05 9.05 0 0 0 2.36-3.97 16.43 16.43 0 0 0 .35-8.12 11.84 11.84 0 0 0-1.2-3.28 7.09 7.09 0 0 0-2.29-2.51 6.06 6.06 0 0 0-3.47-.97c-1.63 0-3 .49-4.11 1.47a8.7 8.7 0 0 0-2.45 3.8c-.53 1.55-.8 3.18-.8 4.9h.02ZM64.57.43h.97l.17 5.39h-.96l-.03-.65a3.58 3.58 0 0 0-.84-2.1 5.62 5.62 0 0 0-2.13-1.62c-.89-.4-1.84-.6-2.88-.6-1.17 0-2.1.3-2.76.89-.67.6-1 1.33-1 2.18 0 1.19.6 2.12 1.8 2.84l6.29 3.78a9.46 9.46 0 0 1 2.55 2.12c.66.8.98 1.85.98 3.14 0 .98-.21 1.97-.65 2.92a5.77 5.77 0 0 1-2.2 2.45c-1.02.67-2.36 1-4 1-2.29 0-4.34-.48-6.14-1.44l.06 1h-.98l-.4-5.5h.98l.03.4c.06.7.4 1.44 1.01 2.17a7.12 7.12 0 0 0 2.38 1.8c.97.48 1.97.71 3 .71.94 0 1.77-.2 2.47-.63a4.32 4.32 0 0 0 2.16-3.81c0-.7-.18-1.3-.54-1.74a5.9 5.9 0 0 0-1.56-1.3l-5.45-3.3a35.26 35.26 0 0 1-2.35-1.5 4.82 4.82 0 0 1-1.28-1.38 3.68 3.68 0 0 1-.55-2.02c0-.94.22-1.85.64-2.71a4.86 4.86 0 0 1 2.07-2.1c.95-.55 2.2-.82 3.7-.82 1.75 0 3.58.44 5.47 1.32l-.03-.89Zm9.31 0h16.2l.37 4.32h-.98l-.13-.9c-.08-.73-.7-1.33-1.86-1.83-1.15-.49-3.05-.74-5.68-.74h-1.06c-.78 0-1.17.46-1.17 1.38v7.45h1.38c1.58 0 2.76-.08 3.55-.23.8-.16 1.3-.35 1.5-.6.2-.24.3-.54.3-.9v-.77h.98v5.85h-.97v-.76c0-.35-.09-.64-.26-.88-.18-.22-.66-.43-1.45-.6-.78-.16-2-.25-3.65-.25h-1.38v8.55c0 .92.4 1.37 1.17 1.37h.43c3.03 0 5.24-.3 6.61-.9 1.38-.6 2.16-1.33 2.34-2.2l.14-.77h.98l-1 4.72H73.87v-.85h1.74c.78 0 1.16-.46 1.16-1.37V2.66c0-.92-.38-1.38-1.16-1.38h-1.74V.43Zm24.18 0h8.6v.85h-1.74c-.78 0-1.16.46-1.16 1.38V19.5c0 .57.12.93.35 1.1.23.16.56.26.96.28 2.13 0 4.13-.28 6-.83 1.87-.56 2.85-1.39 2.9-2.5l.04-.56h.96l-.36 4.75H98.04v-.85h1.74c.78 0 1.16-.46 1.16-1.37V2.66c0-.92-.38-1.38-1.16-1.38h-1.74V.43h.02Zm23.8 0h8.6v.85h-1.73c-.78 0-1.16.46-1.16 1.38V19.5c0 .57.11.93.35 1.1.23.16.55.26.95.28 2.13 0 4.13-.28 6.01-.83 1.88-.56 2.86-1.39 2.91-2.5l.03-.56h.97l-.36 4.75h-16.58v-.85h1.74c.78 0 1.16-.46 1.16-1.37V2.66c0-.92-.38-1.38-1.16-1.38h-1.73V.43Zm36.59 13h-6.91l-.7 1.89c-.63 1.7-1 2.74-1.11 3.09a3.4 3.4 0 0 0-.18 1.08c0 .4.08.73.25.99.16.27.38.41.64.41h1.22v.85h-6.19v-.85h.58c.5 0 1.1-.52 1.77-1.55.67-1.05 1.54-3 2.61-5.9L155.4 0h.98l6.84 19.03c.12.35.25.66.4.91.14.26.35.47.62.67.28.18.63.28 1.08.28h.67v.85h-7.79v-.85h1.22c.4 0 .7-.06.9-.18.21-.11.32-.35.32-.7 0-.3-.22-1.06-.67-2.32l-1.52-4.27v.01Zm-6.61-.85h6.33l-3.16-8.77-3.16 8.77h-.01Z" clip-rule="evenodd"/></svg>